PathFileType  4	(X/Y/Z) C:\Users\antoi\Documents\MyRepositories\mobilecap\ResultsAnalysis
DataRate	CameraRate	NumFrames	NumMarkers	Units	OrigDataRate	OrigDataStartFrame	OrigNumFrames
100.0	100.0	4	51	mm	100.0	1	160
Frame#	Time	r_knee			r_shank_antsup			r_ankle			r_calc			r_5meta			r_toe			L_knee			L_shank_antsup			L_ankle			L_calc			L_5meta			L_toe			r_sh2			r_sh3			r_sh4			L_sh2			L_sh3			r_thigh1			r_thigh2			r_thigh3			r_thigh4			r_thigh5			L_thigh1			L_thigh2			L_thigh3			L_thigh4			r.ASIS			r.PSIS			L.ASIS			L.PSIS			C7			R_Shoulder			L_Shoulder			R_Sternum			L_Sternum			R_humerus			R_elbow_med			R_elbow_lat			R_forearm			R_wrist_radius			R_wrist_ulna			L_humerus			L_elbow_med			L_elbow_lat			L_forearm			L_wrist_radius			L_wrist_ulna			R_HJC			L_HJC			R_HJC_reg			L_HJC_reg			
		X1	Y1	Z1	X2	Y2	Z2	X3	Y3	Z3	X4	Y4	Z4	X5	Y5	Z5	X6	Y6	Z6	X7	Y7	Z7	X8	Y8	Z8	X9	Y9	Z9	X10	Y10	Z10	X11	Y11	Z11	X12	Y12	Z12	X13	Y13	Z13	X14	Y14	Z14	X15	Y15	Z15	X16	Y16	Z16	X17	Y17	Z17	X18	Y18	Z18	X19	Y19	Z19	X20	Y20	Z20	X21	Y21	Z21	X22	Y22	Z22	X23	Y23	Z23	X24	Y24	Z24	X25	Y25	Z25	X26	Y26	Z26	X27	Y27	Z27	X28	Y28	Z28	X29	Y29	Z29	X30	Y30	Z30	X31	Y31	Z31	X32	Y32	Z32	X33	Y33	Z33	X34	Y34	Z34	X35	Y35	Z35	X36	Y36	Z36	X37	Y37	Z37	X38	Y38	Z38	X39	Y39	Z39	X40	Y40	Z40	X41	Y41	Z41	X42	Y42	Z42	X43	Y43	Z43	X44	Y44	Z44	X45	Y45	Z45	X46	Y46	Z46	X47	Y47	Z47	X48	Y48	Z48	X49	Y49	Z49	X50	Y50	Z50	X51	Y51	Z51	

1	0.00000000	-3.20712	535.91094	-147.63887	63.67488	431.98576	-157.55257	93.36367	90.64227	-172.74296	44.00276	50.30723	-227.89709	240.16738	57.27012	-124.37263	268.53078	104.34607	-187.40049	-382.71860	532.88876	-458.11829	-388.48872	417.21104	-438.95618	-619.50654	145.57685	-415.26067	-688.20799	134.95056	-361.30750	-507.27802	37.33858	-452.24351	-469.10909	50.28473	-384.83271	106.18592	327.33740	-177.47050	5.74077	400.05209	-114.28208	53.60464	292.25091	-122.19190	-464.81665	449.64773	-477.22681	-497.22384	333.03300	-482.23012	-5.72046	780.58939	-168.27213	35.40359	677.90932	-184.33432	22.07733	638.87991	-128.71715	-76.14664	740.00647	-89.04674	-31.28195	631.17808	-114.42059	-222.99452	746.25516	-492.22115	-258.36618	614.90554	-478.43849	-332.28110	771.27791	-508.08518	-366.95953	638.71708	-483.52001	-109.19407	1000.54880	-166.06778	-320.15301	1039.19267	-233.21919	-129.42760	994.46801	-436.05240	-329.48902	1046.17259	-328.97371	-213.15349	1535.49406	-343.60685	-153.38939	1479.75811	-147.97957	-146.98099	1446.36412	-509.38029	-83.09713	1440.57634	-305.87235	-88.53002	1431.83208	-352.91668	-177.95827	1322.12839	-53.86155	-306.85015	1122.44785	-67.81917	-278.04200	1148.32498	6.95659	-197.27838	991.94934	20.97938	-174.81479	872.40729	36.14068	-204.01360	868.31486	67.58949	-132.44005	1272.06936	-577.45420	-196.07751	1055.73018	-541.25611	-152.61747	1074.00648	-606.50304	-31.14044	964.34209	-554.96384	27.38476	860.01198	-558.89547	2.33325	845.73016	-597.78059	-197.33411	923.06200	-194.75512	-214.29945	910.65364	-407.10685	-184.47200	909.20249	-203.76299	-201.77036	922.13684	-381.18930	
2	0.01000000	11.21561	537.57455	-147.12790	77.96147	432.18167	-158.00680	97.92822	90.57907	-172.30039	46.71994	52.67047	-227.68013	242.60872	51.46221	-124.82040	273.21894	96.77940	-188.16163	-368.97171	531.82020	-458.86515	-376.69696	415.63296	-439.66541	-614.99414	150.55575	-415.71928	-683.48035	142.12048	-361.22516	-506.24050	37.95322	-452.25364	-467.96645	50.16411	-384.70901	118.06648	326.83857	-178.22938	20.29997	401.65521	-113.73971	65.45179	292.87292	-121.75461	-452.22979	450.16622	-477.59040	-487.68886	334.46777	-482.65959	8.88764	781.49554	-165.96079	49.29043	678.49451	-182.42974	35.56546	639.39732	-127.00973	-62.71775	740.73573	-87.90547	-18.88753	632.41564	-113.20964	-209.79222	745.59535	-492.73681	-244.49282	614.06377	-479.17377	-319.05981	770.37791	-507.49621	-353.21687	637.56083	-483.29327	-95.51416	1001.39183	-166.80688	-307.17690	1038.90758	-232.17112	-115.49355	994.60484	-436.23164	-316.54427	1044.68968	-328.00574	-200.86611	1536.25721	-337.52384	-141.42701	1476.85348	-142.78675	-135.00383	1449.44401	-504.71789	-71.57083	1440.52176	-301.35904	-76.53996	1432.74091	-348.54581	-165.25769	1317.62671	-51.15466	-292.71156	1117.30654	-67.31856	-264.49414	1142.79261	7.62232	-183.73084	986.48455	21.33018	-161.29032	866.87516	35.94494	-190.89114	862.53171	67.15041	-121.57690	1274.81695	-573.43185	-189.38173	1059.47634	-539.89187	-145.06030	1077.49617	-604.70686	-27.78843	964.08237	-553.80689	29.38606	858.80740	-558.73703	4.24259	845.54737	-597.92801	-182.87298	923.29354	-194.33864	-200.48094	910.24054	-406.60111	-170.65872	911.00431	-203.30340	-187.97560	921.70333	-380.47345	
3	0.02000000	25.68831	539.35104	-146.58421	91.96267	432.33883	-158.37943	102.18056	90.58313	-171.94610	49.21074	54.92330	-227.49478	244.81848	46.29264	-125.21052	277.55115	89.73511	-188.94446	-354.73925	530.70769	-459.70191	-364.47156	414.03265	-440.53910	-610.03297	155.69092	-416.17063	-678.24175	149.61032	-361.06626	-505.12112	38.59921	-452.26030	-466.72057	49.94452	-384.58947	129.47493	326.25542	-178.91385	34.58209	403.24764	-113.21419	76.91049	293.47281	-121.31650	-439.25530	450.74636	-477.99701	-477.81319	336.01928	-483.15255	23.49112	782.80938	-163.61385	63.33443	679.57322	-180.46769	49.26108	640.36160	-125.28326	-49.17786	741.78010	-86.67041	-6.10395	633.96132	-111.90145	-196.33856	745.01601	-493.19600	-230.21927	613.24524	-479.92277	-305.62959	769.41139	-506.86589	-339.09722	636.29868	-483.09646	-81.89741	1002.49102	-167.40377	-294.20763	1038.79699	-231.26450	-101.80661	994.73619	-436.35203	-303.59950	1043.40934	-327.17859	-188.55884	1537.13103	-331.50236	-129.44294	1474.14976	-137.67272	-122.91520	1452.66487	-500.07164	-59.97814	1440.62445	-296.85666	-64.48974	1433.78398	-344.17448	-152.52209	1313.38507	-48.50486	-278.49227	1112.42757	-66.96330	-250.91694	1137.51882	8.19638	-170.15675	981.27396	21.63460	-147.78298	861.60159	35.73892	-177.74868	857.02183	66.68412	-110.73827	1277.72436	-569.50067	-182.70811	1063.45340	-538.46319	-137.54997	1081.16710	-602.86835	-24.40042	964.05734	-552.63426	31.17994	857.80178	-558.57990	5.97313	845.58608	-598.10022	-168.54597	923.77269	-193.84515	-186.75722	909.86970	-406.00278	-156.93107	912.82897	-202.74900	-174.26071	921.34848	-379.72686	
4	0.03000000	40.14962	541.26647	-145.96548	105.39532	432.40417	-158.57628	105.88899	90.69079	-171.73679	51.30423	56.97473	-227.36289	246.63735	42.20385	-125.50123	281.26318	83.59385	-189.75648	-339.59808	529.49672	-460.70899	-351.45510	412.41227	-441.72290	-604.21182	161.11643	-416.60009	-672.03535	157.69592	-360.76415	-503.84735	39.33106	-452.25693	-465.28019	49.56949	-384.48028	140.03835	325.52147	-179.44046	48.27408	404.77871	-112.70293	87.62522	294.00786	-120.87186	-425.54699	451.44547	-478.48443	-467.30397	337.80336	-483.76845	38.06920	784.75190	-161.20683	77.58354	681.40792	-178.40337	63.23767	642.01375	-123.52197	-35.48992	743.32297	-85.28523	7.26818	635.97398	-110.42932	-182.42629	744.57839	-493.56470	-215.21307	612.46444	-480.71926	-291.81333	768.31038	-506.17225	-324.28835	634.83626	-482.98037	-68.38866	1004.04771	-167.73991	-281.24719	1038.98068	-230.59823	-88.53444	994.86428	-436.35497	-290.65725	1042.49043	-326.59358	-176.22594	1538.19638	-325.59498	-117.42576	1471.80752	-132.70345	-110.63528	1456.13204	-495.45592	-48.27545	1440.99697	-292.37572	-52.34417	1435.05689	-339.80427	-139.72719	1309.61216	-45.95666	-264.13700	1108.02659	-66.86252	-237.29779	1132.71360	8.60979	-156.53067	976.53104	21.85911	-134.28166	856.80472	35.51399	-164.56504	852.01071	66.16904	-99.94713	1280.92033	-565.73920	-176.07372	1067.84433	-536.91553	-130.12390	1085.16177	-600.95699	-20.97164	964.44875	-551.44076	32.59095	857.14892	-558.42351	7.38215	846.02336	-598.31149	-154.44841	924.68803	-193.20859	-173.18386	909.57916	-405.23408	-143.32691	914.67306	-202.02921	-160.66896	921.14341	-378.92448	
